<?xml version="1.0" standalone="no"?>
<!DOCTYPE svg PUBLIC "-//W3C//DTD SVG 20010904//EN"
 "http://www.w3.org/TR/2001/REC-SVG-20010904/DTD/svg10.dtd">
<svg version="1.0" xmlns="http://www.w3.org/2000/svg"
 width="500.000000pt" height="500.000000pt" viewBox="0 0 500.000000 500.000000"
 preserveAspectRatio="xMidYMid meet">

<g transform="translate(0.000000,500.000000) scale(0.100000,-0.100000)"
fill="#000000" stroke="none">
<path d="M2975 4265 c-73 -20 -201 -87 -267 -140 -75 -59 -139 -141 -188 -240
-49 -99 -70 -179 -70 -267 l0 -68 54 0 c117 0 269 72 376 180 126 125 198 283
207 453 l6 97 -34 -1 c-19 0 -56 -7 -84 -14z"/>
<path d="M2905 3495 c-33 -7 -105 -30 -160 -50 -279 -103 -274 -102 -471 -27
-215 82 -309 96 -458 68 -255 -49 -479 -237 -585 -489 -63 -153 -76 -229 -75
-457 0 -184 3 -218 27 -331 64 -302 164 -529 347 -791 71 -103 226 -263 280
-291 34 -17 34 -17 11 0 -98 72 -166 145 -269 291 -93 130 -144 221 -203 358
-155 361 -196 742 -113 1032 102 357 392 594 724 594 100 1 166 -15 327 -79
162 -63 194 -63 373 4 191 72 249 86 360 85 217 -1 412 -83 545 -229 l40 -44
34 28 33 28 -46 57 c-85 104 -215 185 -366 228 -97 27 -271 35 -355 15z"/>
<path d="M2050 3134 c-123 -33 -283 -150 -402 -292 -100 -121 -128 -159 -128
-176 0 -34 28 -13 90 70 79 104 236 256 315 303 75 45 148 70 207 71 71 0 95
-13 109 -58 43 -145 -189 -669 -593 -1340 -54 -90 -98 -170 -98 -178 0 -36 33
-2 140 144 350 478 749 933 913 1043 48 31 68 39 96 37 31 -3 38 -8 48 -38 35
-98 -46 -414 -203 -791 -30 -74 -58 -142 -61 -151 -13 -42 35 -13 128 77 175
168 334 264 449 273 56 3 69 1 92 -17 49 -39 54 -81 28 -249 -26 -167 -23
-213 16 -238 35 -23 118 -14 189 21 60 29 175 134 175 159 0 34 -23 23 -81
-38 -38 -41 -80 -75 -114 -91 -61 -28 -142 -36 -156 -14 -13 21 -11 93 6 189
37 208 5 298 -108 315 -107 16 -292 -74 -460 -224 -90 -81 -90 -81 -46 25 22
55 64 171 94 259 132 392 125 598 -19 571 -114 -22 -377 -281 -720 -711 -153
-191 -159 -197 -116 -120 297 537 427 841 437 1020 4 68 1 85 -16 112 -33 52
-107 65 -211 37z"/>
<path d="M3337 2758 c-42 -114 -53 -261 -28 -383 18 -87 91 -230 151 -298 54
-60 149 -132 212 -163 l36 -17 -25 -71 c-61 -169 -196 -400 -320 -546 -66 -77
-116 -121 -175 -155 -62 -36 -36 -31 34 7 80 42 197 168 299 321 75 112 179
306 207 385 l11 33 100 -51 c113 -56 151 -63 151 -27 0 20 -22 34 -158 100
-178 87 -274 155 -345 242 -62 76 -123 200 -142 290 -19 88 -19 232 -1 310 17
72 15 81 -7 23z"/>
</g>
</svg>
